<mxfile host="app.diagrams.net" modified="2022-04-12T05:16:43.086Z" agent="5.0 (Windows NT 10.0; Win64; x64) AppleWebKit/537.36 (KHTML, like Gecko) Chrome/100.0.4896.75 Safari/537.36" etag="o3odm0oF-yx4vdx6syk1" version="17.4.3" type="github">
  <diagram id="cZB1z2tTDCb87mRbPuUc" name="Page-1">
    <mxGraphModel dx="865" dy="483" grid="1" gridSize="10" guides="1" tooltips="1" connect="1" arrows="1" fold="1" page="1" pageScale="1" pageWidth="850" pageHeight="1100" math="0" shadow="0">
      <root>
        <mxCell id="0" />
        <mxCell id="1" parent="0" />
        <mxCell id="dwoy7Fk5YyZ15ijMKhwg-6" value="" style="shape=table;startSize=0;container=1;collapsible=0;childLayout=tableLayout;rounded=0;sketch=0;" vertex="1" parent="1">
          <mxGeometry x="170" y="120" width="60" height="80" as="geometry" />
        </mxCell>
        <mxCell id="dwoy7Fk5YyZ15ijMKhwg-7" value="" style="shape=tableRow;horizontal=0;startSize=0;swimlaneHead=0;swimlaneBody=0;top=0;left=0;bottom=0;right=0;collapsible=0;dropTarget=0;fillColor=none;points=[[0,0.5],[1,0.5]];portConstraint=eastwest;rounded=0;sketch=0;" vertex="1" parent="dwoy7Fk5YyZ15ijMKhwg-6">
          <mxGeometry width="60" height="40" as="geometry" />
        </mxCell>
        <mxCell id="dwoy7Fk5YyZ15ijMKhwg-8" value="a" style="shape=partialRectangle;html=1;whiteSpace=wrap;connectable=0;overflow=hidden;fillColor=none;top=0;left=0;bottom=0;right=0;pointerEvents=1;rounded=0;sketch=0;" vertex="1" parent="dwoy7Fk5YyZ15ijMKhwg-7">
          <mxGeometry width="60" height="40" as="geometry">
            <mxRectangle width="60" height="40" as="alternateBounds" />
          </mxGeometry>
        </mxCell>
        <mxCell id="dwoy7Fk5YyZ15ijMKhwg-9" value="" style="shape=tableRow;horizontal=0;startSize=0;swimlaneHead=0;swimlaneBody=0;top=0;left=0;bottom=0;right=0;collapsible=0;dropTarget=0;fillColor=none;points=[[0,0.5],[1,0.5]];portConstraint=eastwest;rounded=0;sketch=0;" vertex="1" parent="dwoy7Fk5YyZ15ijMKhwg-6">
          <mxGeometry y="40" width="60" height="40" as="geometry" />
        </mxCell>
        <mxCell id="dwoy7Fk5YyZ15ijMKhwg-10" value="null" style="shape=partialRectangle;html=1;whiteSpace=wrap;connectable=0;overflow=hidden;fillColor=none;top=0;left=0;bottom=0;right=0;pointerEvents=1;rounded=0;sketch=0;" vertex="1" parent="dwoy7Fk5YyZ15ijMKhwg-9">
          <mxGeometry width="60" height="40" as="geometry">
            <mxRectangle width="60" height="40" as="alternateBounds" />
          </mxGeometry>
        </mxCell>
        <mxCell id="dwoy7Fk5YyZ15ijMKhwg-11" value="" style="shape=table;startSize=0;container=1;collapsible=0;childLayout=tableLayout;rounded=0;sketch=0;" vertex="1" parent="1">
          <mxGeometry x="290" y="120" width="60" height="80" as="geometry" />
        </mxCell>
        <mxCell id="dwoy7Fk5YyZ15ijMKhwg-12" value="" style="shape=tableRow;horizontal=0;startSize=0;swimlaneHead=0;swimlaneBody=0;top=0;left=0;bottom=0;right=0;collapsible=0;dropTarget=0;fillColor=none;points=[[0,0.5],[1,0.5]];portConstraint=eastwest;rounded=0;sketch=0;" vertex="1" parent="dwoy7Fk5YyZ15ijMKhwg-11">
          <mxGeometry width="60" height="40" as="geometry" />
        </mxCell>
        <mxCell id="dwoy7Fk5YyZ15ijMKhwg-13" value="z" style="shape=partialRectangle;html=1;whiteSpace=wrap;connectable=0;overflow=hidden;fillColor=none;top=0;left=0;bottom=0;right=0;pointerEvents=1;rounded=0;sketch=0;" vertex="1" parent="dwoy7Fk5YyZ15ijMKhwg-12">
          <mxGeometry width="60" height="40" as="geometry">
            <mxRectangle width="60" height="40" as="alternateBounds" />
          </mxGeometry>
        </mxCell>
        <mxCell id="dwoy7Fk5YyZ15ijMKhwg-14" value="" style="shape=tableRow;horizontal=0;startSize=0;swimlaneHead=0;swimlaneBody=0;top=0;left=0;bottom=0;right=0;collapsible=0;dropTarget=0;fillColor=none;points=[[0,0.5],[1,0.5]];portConstraint=eastwest;rounded=0;sketch=0;" vertex="1" parent="dwoy7Fk5YyZ15ijMKhwg-11">
          <mxGeometry y="40" width="60" height="40" as="geometry" />
        </mxCell>
        <mxCell id="dwoy7Fk5YyZ15ijMKhwg-15" value="null" style="shape=partialRectangle;html=1;whiteSpace=wrap;connectable=0;overflow=hidden;fillColor=none;top=0;left=0;bottom=0;right=0;pointerEvents=1;rounded=0;sketch=0;" vertex="1" parent="dwoy7Fk5YyZ15ijMKhwg-14">
          <mxGeometry width="60" height="40" as="geometry">
            <mxRectangle width="60" height="40" as="alternateBounds" />
          </mxGeometry>
        </mxCell>
        <mxCell id="dwoy7Fk5YyZ15ijMKhwg-16" value="node1" style="text;html=1;align=center;verticalAlign=middle;resizable=0;points=[];autosize=1;strokeColor=none;fillColor=none;" vertex="1" parent="1">
          <mxGeometry x="175" y="200" width="50" height="20" as="geometry" />
        </mxCell>
        <mxCell id="dwoy7Fk5YyZ15ijMKhwg-17" value="node2" style="text;html=1;align=center;verticalAlign=middle;resizable=0;points=[];autosize=1;strokeColor=none;fillColor=none;" vertex="1" parent="1">
          <mxGeometry x="295" y="200" width="50" height="20" as="geometry" />
        </mxCell>
      </root>
    </mxGraphModel>
  </diagram>
</mxfile>
